<svg width="404" height="396.115051" xmlns="http://www.w3.org/2000/svg" xml:space="preserve" version="1.1">

 <g>
  <title>Layer 1</title>
  <path id="svg_1" fill="#00599C" d="m351.10699,284.1445c2.40101,-4.159 3.89301,-8.845 3.89301,-13.05298l0,-146.069c0,-4.208 -1.48999,-8.893 -3.892,-13.052l-149.108,86.08701l149.10699,86.08697z" class="st0"/>
  <path id="svg_2" fill="#004482" d="m215.25,367.0755l126.5,-73.034c3.64401,-2.104 6.95599,-5.737 9.35699,-9.897l-149.10699,-86.08697l-149.107,86.08798c2.401,4.159 5.714,7.793 9.357,9.89599l126.5,73.034c7.287,4.20801 19.213,4.20801 26.5,0z" class="st1"/>
  <path id="svg_3" fill="#659AD2" d="m351.108,111.96951c-2.40201,-4.15999 -5.71499,-7.793 -9.358,-9.897l-126.5,-73.034c-7.287,-4.208 -19.213,-4.208 -26.5,0l-126.5,73.034c-7.288,4.20701 -13.25,14.535 -13.25,22.95l0,146.069c0,4.20798 1.491,8.89399 3.893,13.05298l149.107,-86.08696l149.108,-86.08802z" class="st2"/>
  <g id="svg_4">
   <path id="svg_5" fill="#FFFFFF" d="m202,300.0575c-56.243,0 -102,-45.75699 -102,-101.99999s45.757,-102.00001 102,-102.00001c36.29199,0 70.13901,19.53 88.33099,50.96801l-44.143,25.54401c-9.105,-15.73601 -26.03799,-25.51201 -44.188,-25.51201c-28.122,0 -51,22.87801 -51,51c0,28.121 22.878,51 51,51c18.15199,0 35.085,-9.776 44.19099,-25.515l44.143,25.543c-18.19198,31.44101 -52.03997,50.97199 -88.33398,50.97199z" class="st3"/>
  </g>
 </g>
</svg>